<svg xmlns="http://www.w3.org/2000/svg" viewBox="0 0 17 18">
    <path fill="#000000" fill-rule="evenodd" d="M4.09 17.616h8.82c1.976 0 3.591-1.563 3.591-3.473V5.485c0-1.91-1.615-3.472-3.591-3.472h-.135v-.76c0-.477-.403-.868-.896-.868-.495 0-.899.391-.899.868v.76H6.021v-.76c0-.477-.406-.868-.899-.868-.492 0-.896.391-.896.868v.76h-.137C2.115 2.013.5 3.575.5 5.485v8.638c0 1.93 1.615 3.493 3.59 3.493zm8.843-1.736H4.09c-.988 0-1.795-.782-1.795-1.737V8.544h12.411v5.577c.023.977-.784 1.759-1.773 1.759zM4.09 3.749h.136v1.193c0 .478.405.868.896.868.495 0 .9-.39.9-.868V3.749h4.981v1.193c0 .478.406.868.898.868.495 0 .897-.39.897-.868V3.749h.135c.989 0 1.797.781 1.797 1.736v1.324L2.295 6.808V5.484c0-.955.807-1.735 1.795-1.735z"/>
</svg>
