<svg xmlns="http://www.w3.org/2000/svg" viewBox="0 0 17 17">
    <path fill="#000000" fill-rule="evenodd" d="M16.949 4.996a6.237 6.237 0 0 0-.395-2.063 4.158 4.158 0 0 0-.981-1.506 4.175 4.175 0 0 0-1.505-.981 6.267 6.267 0 0 0-2.063-.395C11.098.01 10.808 0 8.5 0 6.191 0 5.903.01 4.996.051a6.273 6.273 0 0 0-2.064.395 4.188 4.188 0 0 0-1.506.981 4.168 4.168 0 0 0-.98 1.506 6.263 6.263 0 0 0-.395 2.063C.009 5.902 0 6.191 0 8.5s.009 2.598.051 3.505c.015.705.148 1.402.395 2.063.214.567.548 1.081.98 1.505.425.433.939.767 1.506.981a6.248 6.248 0 0 0 2.064.395c.907.042 1.195.051 3.504.051 2.308 0 2.598-.009 3.505-.051a6.242 6.242 0 0 0 2.063-.395 4.348 4.348 0 0 0 2.486-2.486 6.247 6.247 0 0 0 .395-2.063c.041-.907.051-1.196.051-3.505s-.01-2.598-.051-3.504zm-1.53 6.939a4.722 4.722 0 0 1-.293 1.578 2.813 2.813 0 0 1-1.613 1.613 4.671 4.671 0 0 1-1.577.293c-.897.041-1.166.05-3.436.05s-2.538-.009-3.435-.05a4.672 4.672 0 0 1-1.578-.293 2.63 2.63 0 0 1-.977-.635 2.673 2.673 0 0 1-.637-.978 4.696 4.696 0 0 1-.292-1.578c-.041-.896-.049-1.165-.049-3.435 0-2.269.008-2.538.049-3.434.006-.54.105-1.073.292-1.579a2.66 2.66 0 0 1 .637-.977c.275-.283.607-.5.977-.636a4.697 4.697 0 0 1 1.578-.293c.897-.041 1.165-.049 3.435-.049s2.539.008 3.436.049a4.696 4.696 0 0 1 1.577.293c.369.136.703.353.978.636.282.274.499.608.635.977.187.506.286 1.039.293 1.579.041.896.049 1.165.049 3.434 0 2.27-.008 2.539-.049 3.435zM8.5 4.135a4.365 4.365 0 1 0 0 8.73 4.365 4.365 0 0 0 0-8.73zm0 7.199a2.833 2.833 0 1 1 0-5.667 2.833 2.833 0 0 1 0 5.667zm5.558-7.371a1.021 1.021 0 1 1-1.02-1.02c.562 0 1.02.456 1.02 1.02z"/>
</svg>
