<svg xmlns="http://www.w3.org/2000/svg" viewBox="0 0 15 11">
    <path fill="#000000" fill-rule="evenodd" d="M1.145 1.591A2.126 2.126 0 0 1 3.188.288h9.522a2.155 2.155 0 0 1 2.048 1.25c.072.1.091.229.05.344a.373.373 0 0 1-.253.241L8.243 5.405a.527.527 0 0 1-.524 0l-6.397-3.31a.335.335 0 0 1-.217-.208.334.334 0 0 1 .04-.296zm.418 2.095c1.988 1.035 3.975 2.066 5.96 3.094.272.161.61.161.882 0a813.55 813.55 0 0 1 5.935-3.067.713.713 0 0 1 .185-.07.335.335 0 0 1 .315.054.325.325 0 0 1 .124.292v3.94c.017.341.005.681-.035 1.02a2.133 2.133 0 0 1-2.14 1.796H3.182a2.16 2.16 0 0 1-2.14-1.603 2.24 2.24 0 0 1-.081-.558V4.031c0-.382.246-.527.602-.346v.001z"/>
</svg>
