<svg xmlns="http://www.w3.org/2000/svg" viewBox="0 0 24 24">
    <path fill="#595959" fill-rule="evenodd" d="M11.204 23.687l-.327.136c-.757.313-1.785.11-2.365-.47l-.25-.251c-.322-.321-1.015-.608-1.469-.608h-.355c-.82 0-1.691-.583-2.005-1.34l-.135-.327c-.174-.421-.705-.951-1.125-1.125l-.327-.135c-.758-.314-1.34-1.186-1.34-2.006v-.354c0-.455-.287-1.148-.609-1.47l-.251-.25c-.579-.58-.783-1.607-.47-2.364l.136-.328c.174-.42.174-1.17 0-1.591l-.136-.327c-.313-.757-.109-1.784.47-2.364l.251-.251c.322-.322.609-1.015.609-1.469v-.355c0-.82.582-1.691 1.34-2.005l.327-.136c.42-.173.951-.704 1.125-1.124l.135-.327c.314-.758 1.185-1.34 2.005-1.34h.355c.455 0 1.148-.287 1.469-.609l.25-.25c.58-.58 1.608-.783 2.365-.47l.327.135c.421.174 1.171.174 1.591 0l.327-.135c.758-.313 1.786-.11 2.365.47l.25.25c.322.322 1.015.609 1.47.609h.355c.819 0 1.69.582 2.004 1.34l.137.327c.173.42.703.951 1.124 1.124l.327.136c.757.314 1.34 1.185 1.34 2.005v.355c0 .455.287 1.148.608 1.469l.251.251c.58.58.783 1.607.47 2.364l-.136.327c-.174.421-.174 1.171 0 1.591l.136.328c.313.757.11 1.784-.47 2.364l-.251.25c-.321.323-.608 1.016-.608 1.47v.354c0 .82-.583 1.692-1.34 2.006l-.327.135c-.421.174-.951.704-1.124 1.125l-.137.327c-.314.757-1.185 1.34-2.004 1.34h-.355c-.456 0-1.148.287-1.47.608l-.25.251c-.579.58-1.607.783-2.365.47l-.327-.136c-.42-.173-1.17-.173-1.591 0zm2.335-.869c.35.145.91.034 1.179-.234l.25-.251c.527-.525 1.496-.928 2.239-.928h.355c.379 0 .853-.316 1-.667l.135-.327c.284-.687 1.027-1.429 1.714-1.714l.327-.135c.351-.146.668-.621.668-1.001v-.354c0-.743.401-1.713.926-2.239l.251-.25c.269-.269.38-.829.235-1.179l-.135-.327c-.285-.688-.285-1.737 0-2.424l.135-.327c.145-.351.034-.911-.235-1.179l-.251-.25c-.525-.527-.926-1.496-.926-2.239v-.355c0-.379-.317-.854-.668-1l-.327-.136c-.687-.284-1.43-1.026-1.714-1.713l-.135-.327c-.147-.351-.621-.668-1-.668h-.355c-.743 0-1.712-.402-2.239-.927l-.25-.251c-.269-.268-.829-.379-1.179-.235l-.328.136c-.687.284-1.735.284-2.422 0l-.328-.136c-.35-.144-.911-.033-1.179.235l-.25.251c-.527.525-1.496.927-2.239.927h-.355c-.38 0-.854.317-1 .668l-.135.327c-.285.687-1.027 1.429-1.715 1.713l-.326.136c-.351.146-.668.621-.668 1v.355c0 .743-.402 1.712-.927 2.239l-.251.25c-.269.268-.38.828-.234 1.179l.135.327c.284.687.284 1.736 0 2.424l-.135.327c-.146.35-.035.91.234 1.179l.251.25c.525.526.927 1.496.927 2.239v.354c0 .38.317.855.668 1.001l.326.135c.688.285 1.43 1.027 1.715 1.714l.135.327c.146.351.62.667 1 .667h.355c.743 0 1.712.403 2.239.928l.25.251c.268.268.829.379 1.179.234l.328-.135c.687-.285 1.735-.285 2.422 0l.328.135zm-6.595-4.994l-.768-.769L17.054 6.176l.768.769L6.944 17.824zm1.792-6.912a2.176 2.176 0 1 1 .002-4.352 2.176 2.176 0 0 1-.002 4.352zm0-1.088a1.088 1.088 0 1 0 0-2.176 1.088 1.088 0 0 0 0 2.176zm6.527 7.615a2.175 2.175 0 1 1 .001-4.351 2.175 2.175 0 0 1-.001 4.351zm0-1.087a1.088 1.088 0 1 0 0-2.176 1.088 1.088 0 0 0 0 2.176z"/>
</svg>
