<svg xmlns="http://www.w3.org/2000/svg" viewBox="0 0 20 20">
    <path fill="#000000" fill-rule="evenodd" d="M19.652 18.107l-4.902-4.912a8.187 8.187 0 0 0-.739-10.78A8.14 8.14 0 0 0 8.205 0C6.098 0 4.015.795 2.4 2.415c-3.203 3.21-3.203 8.421 0 11.63a8.14 8.14 0 0 0 5.805 2.415 8.066 8.066 0 0 0 4.957-1.674l4.929 4.885c.219.219.493.328.793.328.276 0 .576-.109.796-.328.412-.412.412-1.125-.028-1.564zM8.231 14.239c-1.614 0-3.093-.632-4.244-1.756-2.327-2.332-2.327-6.144 0-8.504a5.959 5.959 0 0 1 4.244-1.755c1.618 0 3.098.631 4.246 1.755 1.15 1.125 1.752 2.634 1.752 4.252 0 1.618-.628 3.101-1.752 4.252-1.124 1.152-2.657 1.756-4.246 1.756z"/>
</svg>
