<svg xmlns="http://www.w3.org/2000/svg" viewBox="0 0 17 22">
    <path fill="#000000" fill-rule="evenodd" d="M14.612 21.508v-2.419c0-2.268-1.877-4.114-4.184-4.114H6.57c-2.308 0-4.184 1.846-4.184 4.114v2.419H.385l.004-2.419a5.94 5.94 0 0 1 1.315-3.734 6.184 6.184 0 0 1 4.869-2.344h3.856c1.202 0 2.371.343 3.38.995 1.754 1.131 2.801 3.031 2.801 5.083v2.419h-1.998zm-6.114-9.27c-3.296 0-5.975-2.636-5.975-5.873 0-3.239 2.679-5.874 5.975-5.874s5.974 2.635 5.974 5.874-2.678 5.873-5.974 5.873zm0-9.784c-2.194 0-3.978 1.755-3.978 3.911s1.784 3.91 3.978 3.91 3.977-1.754 3.977-3.91-1.783-3.911-3.977-3.911z"/>
</svg>
